<?xml version="1.0" encoding="UTF-8"?>
<svg xmlns="http://www.w3.org/2000/svg" width="1024" height="1024" viewBox="256 0 1024 1024">
<defs>
<clipPath id="cc"><rect x="256" y="0" width="1024" height="1024" rx="112"/></clipPath>
</defs>
<g clip-path="url(#cc)">
<rect x="256" y="0" width="1024" height="1024" fill="#e3d6b8"/>
<g transform="translate(0.000000,1024.000000) scale(0.100000,-0.100000)"
fill="#1c1814" stroke="none">
<path d="M0 5120 l0 -5120 7680 0 7680 0 0 5120 0 5120 -7680 0 -7680 0 0
-5120z m8235 4025 c194 -50 351 -190 427 -380 28 -70 32 -94 36 -197 2 -65 1
-118 -3 -118 -4 0 -43 33 -86 74 -94 91 -151 133 -189 141 -20 4 -37 19 -54
49 -32 54 -87 103 -145 129 -86 38 -136 34 -525 -37 -198 -37 -379 -75 -402
-85 -63 -28 -124 -89 -156 -156 -15 -33 -28 -65 -28 -70 0 -6 -15 -17 -34 -23
-22 -8 -71 -51 -130 -113 l-95 -100 -12 43 c-16 56 -16 232 0 283 57 182 159
307 313 385 91 45 75 42 728 164 149 28 273 32 355 11z m156 -551 c52 -15 73
-34 482 -442 280 -280 434 -441 447 -468 24 -48 26 -123 6 -163 -22 -42 -79
-87 -120 -95 -86 -16 -84 -18 -563 452 -245 240 -451 450 -460 466 -23 44 -28
127 -10 162 29 55 94 101 148 103 8 1 40 -6 70 -15z m-1075 -184 c36 -23 74
-91 74 -133 0 -48 -27 -94 -102 -179 -134 -152 -192 -235 -297 -430 l-53 -98
-31 14 c-18 8 -90 42 -160 75 l-128 62 52 97 c113 209 214 360 326 489 108
124 224 161 319 103z m993 -304 l104 -104 -34 -21 c-57 -35 -144 -58 -359 -96
-113 -20 -274 -50 -358 -66 -215 -41 -309 -37 -435 16 l-38 16 22 32 c13 18
54 70 93 115 69 83 70 84 107 78 25 -4 126 10 291 40 199 36 461 85 498 93 3
0 52 -46 109 -103z m1204 -121 c25 -8 77 -29 114 -47 88 -43 216 -168 260
-253 35 -69 222 -699 211 -710 -7 -7 -278 -59 -282 -54 -1 2 -38 130 -81 284
-43 154 -89 303 -102 330 -43 89 -131 160 -221 180 -22 4 -37 16 -47 36 -9 16
-58 74 -111 128 l-95 99 53 11 c29 6 62 13 73 15 34 8 179 -4 228 -19z m-3193
-252 c122 -55 562 -262 875 -412 148 -71 210 -124 259 -221 64 -129 69 -242
15 -367 -100 -231 -219 -547 -219 -580 1 -52 27 -106 87 -178 148 -177 309
-449 406 -685 182 -445 235 -936 152 -1402 -125 -691 -529 -1308 -1110 -1695
-326 -217 -689 -357 -1085 -420 -162 -25 -577 -25 -735 1 -166 27 -363 75
-425 104 -129 61 -220 193 -228 333 -3 43 1 101 8 131 46 198 239 335 444 314
32 -3 112 -24 177 -46 314 -104 650 -118 964 -39 325 83 660 296 884 563 471
560 569 1342 251 2001 -253 523 -760 905 -1345 1011 -125 23 -461 26 -575 6
-508 -91 -924 -337 -1211 -717 -182 -240 -316 -562 -360 -865 -16 -109 -16
-381 0 -489 79 -540 407 -1039 866 -1315 l57 -35 -44 -22 c-104 -53 -224 -226
-248 -358 -17 -89 -10 -209 16 -274 19 -50 -313 156 -488 302 -399 334 -713
874 -822 1415 -40 197 -50 297 -50 516 -1 276 29 484 104 729 134 435 340 781
650 1092 223 224 369 327 695 489 l210 105 66 135 c82 168 138 234 242 285
125 62 166 64 406 25 l208 -34 34 20 c28 17 52 55 144 232 118 225 157 282
233 334 85 59 154 79 262 75 92 -3 99 -5 230 -64z m2565 -202 l106 -105 -6
-40 c-5 -33 10 -96 75 -315 44 -151 78 -276 76 -278 -2 -3 -43 -13 -90 -23
-48 -11 -106 -28 -131 -39 -25 -11 -46 -17 -49 -13 -3 6 -93 305 -148 492 -21
74 -25 209 -8 285 14 61 50 147 61 143 4 -2 56 -50 114 -107z m1627 -678 c88
-41 171 -120 207 -196 16 -34 61 -186 101 -337 39 -151 76 -289 81 -306 16
-51 77 -101 173 -140 651 -262 1172 -837 1409 -1554 84 -253 119 -480 120
-770 2 -382 -63 -693 -214 -1040 -293 -668 -868 -1203 -1534 -1425 -69 -24
-92 -27 -170 -23 -71 3 -102 10 -146 31 -134 65 -218 189 -227 336 -7 124 26
215 112 308 54 60 127 99 237 127 191 50 337 114 484 211 499 331 804 974 755
1589 -47 583 -354 1093 -840 1396 -520 325 -1193 358 -1756 85 -764 -370
-1175 -1222 -974 -2020 135 -538 551 -1017 1055 -1218 254 -101 515 -146 758
-133 l117 7 -30 -47 c-52 -83 -72 -150 -78 -262 -4 -92 -2 -111 22 -185 15
-45 47 -111 71 -147 43 -64 43 -65 22 -73 -42 -17 -462 -1 -589 22 -259 47
-443 108 -683 226 -277 136 -489 288 -705 504 -193 194 -327 376 -449 611 -67
131 -162 355 -163 389 0 9 22 54 51 100 117 192 232 468 295 711 127 485 125
899 -5 1431 l-12 47 48 63 c68 90 285 304 378 373 43 32 120 84 170 115 133
83 135 88 113 295 -9 89 -22 188 -27 222 -28 164 69 347 230 432 62 34 109 45
386 97 152 28 847 160 920 174 28 6 89 9 137 7 71 -3 98 -9 150 -33z"/>
<path d="M6389 7152 c-124 -65 -157 -225 -66 -328 125 -143 352 -76 383 113 9
56 -12 118 -54 165 -73 81 -169 100 -263 50z"/>
<path d="M4645 2444 c-151 -82 -171 -284 -37 -376 90 -62 214 -47 287 33 45
50 55 76 55 146 0 77 -29 135 -88 176 -40 27 -57 32 -117 34 -50 2 -79 -1
-100 -13z"/>
<path d="M9662 6367 c-103 -38 -169 -155 -143 -254 22 -82 83 -142 165 -164
90 -24 206 34 247 125 76 167 -97 355 -269 293z"/>
<path d="M10635 1656 c-59 -27 -77 -46 -104 -106 -35 -77 -24 -157 31 -224
125 -152 378 -61 378 135 0 123 -98 219 -221 219 -19 0 -56 -11 -84 -24z"/>
</g>
</g>
</svg>
